<?xml version="1.0" encoding="utf-8"?>
<!-- Generator: Adobe Illustrator 17.0.0, SVG Export Plug-In . SVG Version: 6.00 Build 0)  -->
<!DOCTYPE svg PUBLIC "-//W3C//DTD SVG 1.1//EN" "http://www.w3.org/Graphics/SVG/1.1/DTD/svg11.dtd">
<svg version="1.1" id="Layer_1" xmlns="http://www.w3.org/2000/svg" xmlns:xlink="http://www.w3.org/1999/xlink" x="0px" y="0px"
	 width="313.708px" height="74.061px" viewBox="0 0 313.708 74.061" enable-background="new 0 0 313.708 74.061"
	 xml:space="preserve">
<path fill="#006837" d="M303.704,74.061c-1.176,0-2.371-0.209-3.536-0.649L160.223,20.489c-0.45-0.17-1.904-0.489-3.37-0.489
	s-2.92,0.319-3.373,0.49L13.54,73.411c-5.169,1.954-10.938-0.652-12.891-5.816c-1.954-5.166,0.65-10.938,5.816-12.891L146.41,1.782
	C149.365,0.666,153.268,0,156.854,0s7.489,0.666,10.441,1.781l139.948,52.923c5.166,1.953,7.77,7.725,5.816,12.891
	C311.546,71.596,307.742,74.061,303.704,74.061z"/>
</svg>
