<?xml version="1.0" encoding="utf-8"?>
<!-- Generator: Adobe Illustrator 17.0.0, SVG Export Plug-In . SVG Version: 6.00 Build 0)  -->
<!DOCTYPE svg PUBLIC "-//W3C//DTD SVG 1.1//EN" "http://www.w3.org/Graphics/SVG/1.1/DTD/svg11.dtd">
<svg version="1.1" id="Layer_1" xmlns="http://www.w3.org/2000/svg" xmlns:xlink="http://www.w3.org/1999/xlink" x="0px" y="0px"
	 width="313.708px" height="74.061px" viewBox="0 0 313.708 74.061" enable-background="new 0 0 313.708 74.061"
	 xml:space="preserve">
<path fill="#C1272D" d="M10.004,0c1.176,0,2.371,0.209,3.536,0.649l139.945,52.922c0.45,0.17,1.904,0.489,3.37,0.489
	s2.92-0.319,3.373-0.49L300.168,0.649c5.169-1.954,10.938,0.652,12.891,5.816c1.954,5.166-0.65,10.938-5.816,12.891L167.298,72.278
	c-2.955,1.116-6.858,1.782-10.444,1.782s-7.489-0.666-10.441-1.781L6.466,19.356C1.3,17.403-1.304,11.632,0.649,6.466
	C2.162,2.465,5.966,0,10.004,0z"/>
</svg>
